<svg id="Layer_1" data-name="Layer 1" xmlns="http://www.w3.org/2000/svg" viewBox="0 0 558.92 321.31"><defs><style>.cls-1{stroke:#000;stroke-miterlimit:10;}.cls-2{font-size:26px;font-family:AmaticSC-Regular, Amatic SC;}</style></defs><path class="cls-1" d="M143,506.1" transform="translate(-8.8 -5.79)"/><path d="M110.49,193.86V174.71q0-41.81-1.63-65.31l-.81-10.74A86.66,86.66,0,0,1,107,85.89q0-9.86.54-18l.55-18A64.45,64.45,0,0,0,107,36.26q-5.44,4.07-32.9,122.19l-.27,4.36a64.59,64.59,0,0,1-2.18,11.61,12.11,12.11,0,0,1-2.31,4.93,4.41,4.41,0,0,1-3.4,1.74c-2.9,0-5-.77-6.25-2.32s-1.91-4-1.91-7.25q0-7.85-6.93-40.64t-15-63q-8-30.18-11-33.38-.27,10.15-2.17,47.89-3.81,66.77-3.81,105.07l.27,11.61q-1.08,3.76-5.7,3.77c-.55,0-1.46-.53-2.72-1.59S8.8,199.38,8.8,198.8q0-26.13,4.35-91.72,4.08-60.94,4.08-91.43a8.3,8.3,0,0,0-.54-2.9,6.91,6.91,0,0,1-.82-2.61q0-4.35,7.07-4.35c3.08,0,4.9,1.45,5.44,4.35a52.61,52.61,0,0,1,1.09,8.71l.27,3.48q1.35,7.55,7.88,23.22a220.19,220.19,0,0,1,7.89,21.77q1.64,7,3,11.32,4.35,16.83,5.71,25l3.53,7.54q.82,4.36,3.27,14.23,2.45,11,3.53,18a87.37,87.37,0,0,1,1.09,13.35q3-4.94,17-59.35T99.07,27.84a5.49,5.49,0,0,0,.41-1.59c.09-.68.23-1.6.41-2.76q.54-3.76,2.44-11.32,2.17-5.8,6.53-5.8a7.82,7.82,0,0,1,4.35,1.74c1.63,1.16,2.45,2.32,2.45,3.48q0,121,3.53,128v15.09q-.27,6.67-.27,15.38,0,18.58,1.9,27.87a1.86,1.86,0,0,1,.41.87c.09.38.23.87.41,1.45a11.5,11.5,0,0,1,.27,2.61,13.08,13.08,0,0,1-1.77,6.39c-1.18,2.12-2.58,3.19-4.21,3.19Q110.48,212.44,110.49,193.86ZM107,34.52h-.27l-.55.29.82.29Z" transform="translate(-8.8 -5.79)"/><path d="M83,88.5" transform="translate(-8.8 -5.79)"/><path d="M47.46,78.19" transform="translate(-8.8 -5.79)"/><path d="M194.84,171.19c-18.9-7.56-44.06-.85-53.25,18.27-1.91,4-3.91,9.7-1.83,13.91,2.36,4.76,8.81,6.08,13.62,5.46,5.62-.73,10.84-3.44,15.76-6.12a116.68,116.68,0,0,0,13-8.2,102.72,102.72,0,0,0,23.1-23.15l-8.52-3.09a53.46,53.46,0,0,0-8.65,19.82c-.62,3-1.47,6.94-.55,10,1.15,3.74,5.06,5.14,8.63,5.23,6.49.16,13.45-2.68,19.1-5.66a56.7,56.7,0,0,0,15-11.44,43.71,43.71,0,0,0,9.84-16.59c1.35-4.34-4.19-5.09-7.12-3.68a27.39,27.39,0,0,0-12.92,12.41c-2.45,5-3.67,12.47,1.33,16.37,4.84,3.77,12.18,2.83,17.66,1.35a55.64,55.64,0,0,0,17.12-8,47,47,0,0,0,13.39-14.27l-9.72-1.24C258,176.89,256,182,258,186.66c2.11,5,6.77,7.34,12.06,7.22,5.56-.12,10.56-3.17,15-6.16a89.07,89.07,0,0,0,10.68-8.4,90.17,90.17,0,0,0,10.86-11.83l-9.12-2.17-4.17,12c-1.26,3.62-2.65,7.23-3.64,10.95-1.52,5.71-1.43,12.51,3.81,16.31,6.91,5,16.31,1.95,22.87-2.07a134.16,134.16,0,0,0,18.5-14.23,192.81,192.81,0,0,0,18.46-18.59l-9.4-1.18c-5.86,24-22.18,43.65-38.9,61.17-9.36,9.81-19.15,19.2-28.83,28.7l-32,31.35c-5.9,5.79-11.77,11.61-17.71,17.36a101.13,101.13,0,0,1-17.09,13.79l8.45,1c-.55-3.38.58-6.69,2-9.71a93,93,0,0,1,5.08-9.1A162.86,162.86,0,0,1,236.47,287a243.75,243.75,0,0,1,28.41-29.45C287,237.83,311.3,220.35,336,204c14.38-9.54,28.56-18.3,43.46-26.87L372,174.43,369.82,187c-.65,3.7-2.18,8.14,0,11.61,1.64,2.66,5.11,3.77,8.05,4.06,3.79.37,7.44-.33,11.16-1l48.22-8.27,27.55-4.72c2.07-.36,4.75-2.58,4.12-4.91-.69-2.6-4-2.54-6-2.19l-45.09,7.73-22.54,3.87-5.64,1-2.5.43-1.25.22c-1.64.28.4,0-.69.11-.64.08-1.28.16-1.92.21-.3,0-2.16.05-1.08.09-.56,0-1.11-.11-1.66-.16-.86-.09-.2,0,0,0a6.74,6.74,0,0,1-1.06-.39c.94.46,0,0,.05,0-.35-.29-.37-.29,0,0l-.22-.27a3.5,3.5,0,0,1-.25-1.45,54.32,54.32,0,0,1,1-6.06l2.31-13.16c.66-3.76-5.33-3.89-7.41-2.69a826,826,0,0,0-79.7,52.08c-23.46,17.38-46.69,35.91-65.38,58.49a181.79,181.79,0,0,0-14,19.43c-4.4,7-9.46,15-8,23.65.24,1.48,2.06,2.22,3.33,2.39a7.61,7.61,0,0,0,5.12-1.37,101.11,101.11,0,0,0,16.42-13.12c5.28-5,10.42-10.15,15.61-15.24l32.63-32c10-9.86,20.22-19.62,30-29.73,9-9.25,17.65-18.88,25.08-29.44,8.23-11.69,14.83-24.36,18.24-38.31.46-1.89-1.89-3.23-3.41-3.38a7.09,7.09,0,0,0-6,2.2,179.59,179.59,0,0,1-29.74,27.44,34.9,34.9,0,0,1-7.53,4.67c-.32.14-.64.28-1,.4.24-.09.83-.26-.16,0-.21.06-2.11.49-1.09.33-.4.06-.81.08-1.22.11-.82.08.65.08-.15,0a7.74,7.74,0,0,1-1.19-.15c.6.14-.25-.11-.45-.19a5.05,5.05,0,0,1-3-4,7,7,0,0,1-.17-2.75,23.54,23.54,0,0,1,.6-3.91c.65-2.78,2.09-6.46,3.22-9.7l4.28-12.33c1.86-5.36-6.81-5.22-9.12-2.17a79.65,79.65,0,0,1-20.7,19.18,19.21,19.21,0,0,1-4.95,2.53c-.35.1-.7.19-1.06.26.49-.11.42-.12-.22,0,.78.1-.79-.12-.81-.12.49.12-.67-.34-.15-.08-.21-.11-1.17-.86-1-.68a6,6,0,0,1-1.73-4.21,20.17,20.17,0,0,1,2.1-7.42c1-2.26-.9-4.15-3.12-4.37a6.77,6.77,0,0,0-6.6,3.13,36.82,36.82,0,0,1-3.55,4.73c-.74.83-1.5,1.65-2.31,2.41.08-.08.4-.37,0,0l-.72.64c-.43.37-.86.73-1.31,1.09-.88.71-1.8,1.39-2.74,2-.47.33-1,.64-1.44.95s0,0,.06,0l-1.07.62c-.94.53-1.9,1-2.88,1.49-.53.25-1.06.49-1.6.72l-.7.29s-1.31.52-.75.31-.25.09-.29.1l-1,.33c-.48.16-1,.31-1.45.45s-1.15.32-1.73.47l-1,.23c-.12,0-1,.23-.4.1s-.87.11-1.11.14c-.53,0-1.07.07-1.6.09s.09,0,.17,0c-.29,0-.59,0-.88-.07s-.44,0-.65-.09-.93-.21-.46-.08-.29-.12-.41-.16-.38-.14-.56-.24c.78.4-.52-.44-.28-.23s-.16-.18-.18-.2a4.28,4.28,0,0,1-.52-.74,5.45,5.45,0,0,1-.33-1.49,13.23,13.23,0,0,1,.82-5.22,14.73,14.73,0,0,1,3.34-5.45c.21-.23.42-.46.64-.68.55-.56-.44.37.15-.15s1-.83,1.48-1.21c.25-.19.51-.37.78-.56.07,0,.86-.54.46-.31s.26-.13.28-.15c.44-.23.87-.45,1.32-.66l-7.13-3.68a38.1,38.1,0,0,1-2.68,6.51,30.42,30.42,0,0,1-3.57,5.45c-.76,1-1.55,1.88-2.38,2.78-.42.45-.86.88-1.29,1.32-.07.08-.63.62-.12.14l-.68.62a50.26,50.26,0,0,1-6.16,4.72l-.6.38c.71-.45,0,0-.11.06-.55.32-1.11.64-1.67.94-1.2.65-2.43,1.25-3.68,1.81l-1.56.66-.91.35c.91-.35.12,0-.06,0-1.32.44-2.64.86-4,1.21l-1.56.37c1.15-.27-.46,0-.83,0-1,.08-.23,0,0,0a8,8,0,0,1-.84-.11c.65.14.08.13,0,0l.3.14c-.34-.26-.41-.3-.22-.13a4.6,4.6,0,0,1-.26-2A44.17,44.17,0,0,1,198,189a43.68,43.68,0,0,1,7.18-17.6c1.33-1.92,1-4.13-1.34-5s-5.74-.1-7.18,1.92a92.1,92.1,0,0,1-16.58,17.8,96.1,96.1,0,0,1-20.77,13.2c-1,.48-2,.94-3,1.35-1.56.64.86-.16-.77.26-.54.14-1.07.31-1.61.42,1-.19-2.28,0-1,.11a7.93,7.93,0,0,1-1.37-.19c.77.18-.81-.32-1-.4.67.33-.49-.37-.51-.38-.83-.64.17.38-.43-.45-.47-.65-.1.36-.34-.66a2.87,2.87,0,0,1-.15-1.13,14.66,14.66,0,0,1,1.06-5,24,24,0,0,1,5.45-8.88,27.55,27.55,0,0,1,8.2-5.91c.47-.22.95-.41,1.43-.63s.64-.26.14-.07l1-.35c1.17-.38,2.35-.7,3.55-1,.51-.11,1-.22,1.55-.31-.93.16,1.06-.13,1.25-.15,1.05-.11,2.12-.19,3.18-.22a33.48,33.48,0,0,1,13,2.39,6.78,6.78,0,0,0,7.18-1.92,3,3,0,0,0-1.35-5Z" transform="translate(-8.8 -5.79)"/><text class="cls-2" transform="translate(383.84 236.75)">instruction design</text></svg>